<?xml version="1.0" encoding="UTF-8"?>
<svg width="1920px" height="3212px" viewBox="0 0 1920 3212" version="1.1" xmlns="http://www.w3.org/2000/svg" xmlns:xlink="http://www.w3.org/1999/xlink">
    <!-- Generator: Sketch 53.2 (72643) - https://sketchapp.com -->
    <title>Desktop HD@0,5x</title>
    <desc>Created with Sketch.</desc>
    <defs>
        <linearGradient x1="35.8116933%" y1="-3.24468805%" x2="65.0160696%" y2="91.9901394%" id="linearGradient-1">
            <stop stop-color="#25006A" offset="0%"></stop>
            <stop stop-color="#32003F" offset="100%"></stop>
        </linearGradient>
        <linearGradient x1="85.3550296%" y1="14.6449704%" x2="14.6449704%" y2="85.3550296%" id="linearGradient-2">
            <stop stop-color="#CCE0F4" offset="0%"></stop>
            <stop stop-color="#C3E2F2" offset="1%"></stop>
            <stop stop-color="#A9E6EC" offset="3%"></stop>
            <stop stop-color="#80EDE3" offset="5%"></stop>
            <stop stop-color="#58F4DA" offset="7%"></stop>
            <stop stop-color="#3A0055" offset="100%"></stop>
        </linearGradient>
        <linearGradient x1="-0.00409722423%" y1="49.9770374%" x2="99.9968545%" y2="49.9770374%" id="linearGradient-3">
            <stop stop-color="#CCE0F4" offset="0%"></stop>
            <stop stop-color="#C6D7ED" offset="1%"></stop>
            <stop stop-color="#B5BDDB" offset="2%"></stop>
            <stop stop-color="#9A94BE" offset="4%"></stop>
            <stop stop-color="#755A95" offset="6%"></stop>
            <stop stop-color="#451161" offset="8%"></stop>
            <stop stop-color="#3A0055" offset="9%"></stop>
            <stop stop-color="#3A0055" offset="18%"></stop>
        </linearGradient>
        <linearGradient x1="24.9974601%" y1="6.69003353%" x2="75.0076196%" y2="93.3099665%" id="linearGradient-4">
            <stop stop-color="#C6D7ED" offset="0%"></stop>
            <stop stop-color="#B4BDDB" offset="0%"></stop>
            <stop stop-color="#9894BE" offset="0%"></stop>
            <stop stop-color="#705A95" offset="0%"></stop>
            <stop stop-color="#3F1161" offset="0%"></stop>
            <stop stop-color="#330055" offset="0%"></stop>
            <stop stop-color="#F42879" offset="0%"></stop>
            <stop stop-color="#58F4DA" offset="0%"></stop>
            <stop stop-color="#7E00AA" offset="85.0348395%"></stop>
        </linearGradient>
        <linearGradient x1="73.0292782%" y1="94.4006024%" x2="27.0923824%" y2="5.64271718%" id="linearGradient-5">
            <stop stop-color="#CCE0F4" offset="0%"></stop>
            <stop stop-color="#C6D7ED" offset="0%"></stop>
            <stop stop-color="#B4BDDB" offset="0%"></stop>
            <stop stop-color="#9894BE" offset="0%"></stop>
            <stop stop-color="#705A95" offset="0%"></stop>
            <stop stop-color="#3F1161" offset="0%"></stop>
            <stop stop-color="#330055" offset="0%"></stop>
            <stop stop-color="#F42879" offset="78%"></stop>
            <stop stop-color="#EA2677" stop-opacity="0.92" offset="99%"></stop>
            <stop stop-color="#330055" stop-opacity="0.8" offset="100%"></stop>
        </linearGradient>
        <linearGradient x1="0%" y1="50%" x2="100%" y2="50%" id="linearGradient-6">
            <stop stop-color="#CCE0F4" offset="0%"></stop>
            <stop stop-color="#D1DFEB" offset="2%"></stop>
            <stop stop-color="#E0DED1" offset="4%"></stop>
            <stop stop-color="#F7DBA8" offset="8%"></stop>
            <stop stop-color="#FFDA99" offset="9%"></stop>
            <stop stop-color="#3A0055" offset="100%"></stop>
        </linearGradient>
        <linearGradient x1="0.000341351257%" y1="49.9973603%" x2="99.9998103%" y2="49.9973603%" id="linearGradient-7">
            <stop stop-color="#CCE0F4" offset="0%"></stop>
            <stop stop-color="#C6D7ED" offset="0%"></stop>
            <stop stop-color="#B4BDDB" offset="0%"></stop>
            <stop stop-color="#9894BE" offset="0%"></stop>
            <stop stop-color="#705A95" offset="0%"></stop>
            <stop stop-color="#3F1161" offset="0%"></stop>
            <stop stop-color="#330055" offset="0%"></stop>
            <stop stop-color="#F42879" offset="0%"></stop>
            <stop stop-color="#FFFFFF" offset="0%"></stop>
            <stop stop-color="#0098E9" offset="100%"></stop>
        </linearGradient>
        <linearGradient x1="3.30002781%" y1="52.842135%" x2="96.8170764%" y2="46.9501109%" id="linearGradient-8">
            <stop stop-color="#CCE0F4" offset="0%"></stop>
            <stop stop-color="#C6D7ED" offset="0%"></stop>
            <stop stop-color="#B4BDDB" offset="0%"></stop>
            <stop stop-color="#9894BE" offset="0%"></stop>
            <stop stop-color="#705A95" offset="0%"></stop>
            <stop stop-color="#3F1161" offset="0%"></stop>
            <stop stop-color="#330055" offset="0%"></stop>
            <stop stop-color="#F42879" offset="0%"></stop>
            <stop stop-color="#FFFFFF" offset="0%"></stop>
            <stop stop-color="#0098E9" offset="100%"></stop>
        </linearGradient>
        <linearGradient x1="-0.0193678465%" y1="50.0021875%" x2="99.9995473%" y2="50.0021875%" id="linearGradient-9">
            <stop stop-color="#CCE0F4" offset="0%"></stop>
            <stop stop-color="#C6D7ED" offset="0%"></stop>
            <stop stop-color="#B4BDDB" offset="0%"></stop>
            <stop stop-color="#9894BE" offset="0%"></stop>
            <stop stop-color="#705A95" offset="0%"></stop>
            <stop stop-color="#3F1161" offset="0%"></stop>
            <stop stop-color="#330055" offset="0%"></stop>
            <stop stop-color="#F42879" offset="0%"></stop>
            <stop stop-color="#FFFFFF" offset="0%"></stop>
            <stop stop-color="#0098E9" offset="100%"></stop>
        </linearGradient>
        <linearGradient x1="10.6381754%" y1="58.5594572%" x2="90.1156871%" y2="40.4703975%" id="linearGradient-10">
            <stop stop-color="#CCE0F4" offset="0%"></stop>
            <stop stop-color="#C6D7ED" offset="0%"></stop>
            <stop stop-color="#B4BDDB" offset="0%"></stop>
            <stop stop-color="#9894BE" offset="0%"></stop>
            <stop stop-color="#705A95" offset="0%"></stop>
            <stop stop-color="#3F1161" offset="0%"></stop>
            <stop stop-color="#330055" offset="0%"></stop>
            <stop stop-color="#F42879" offset="0%"></stop>
            <stop stop-color="#FFFFFF" offset="0%"></stop>
            <stop stop-color="#0098E9" offset="100%"></stop>
        </linearGradient>
        <linearGradient x1="0.00316026234%" y1="50.0019638%" x2="99.9968355%" y2="50.0019638%" id="linearGradient-11">
            <stop stop-color="#CCE0F4" offset="0%"></stop>
            <stop stop-color="#C6D7ED" offset="0%"></stop>
            <stop stop-color="#B4BDDB" offset="0%"></stop>
            <stop stop-color="#9894BE" offset="0%"></stop>
            <stop stop-color="#705A95" offset="0%"></stop>
            <stop stop-color="#3F1161" offset="0%"></stop>
            <stop stop-color="#330055" offset="0%"></stop>
            <stop stop-color="#F42879" offset="0%"></stop>
            <stop stop-color="#58F4DA" offset="0%"></stop>
            <stop stop-color="#7E00AA" offset="100%"></stop>
        </linearGradient>
        <linearGradient x1="1.5135028%" y1="62.2659026%" x2="98.4708688%" y2="37.7859274%" id="linearGradient-12">
            <stop stop-color="#9894BE" offset="0%"></stop>
            <stop stop-color="#705A95" offset="0%"></stop>
            <stop stop-color="#3F1161" offset="0%"></stop>
            <stop stop-color="#330055" offset="0%"></stop>
            <stop stop-color="#F42879" offset="0%"></stop>
            <stop stop-color="#330055" stop-opacity="0.8" offset="100%"></stop>
            <stop stop-color="#AA0080" offset="100%"></stop>
            <stop stop-color="#FF0055" stop-opacity="0.97" offset="100%"></stop>
        </linearGradient>
    </defs>
    <g id="Desktop-HD" stroke="none" stroke-width="1" fill="none" fill-rule="evenodd">
        <g id="bontenew" transform="translate(-369.000000, -184.000000)">
            <rect id="gradiente-background" fill="url(#linearGradient-1)" fill-rule="nonzero" x="364" y="183" width="1948" height="3791"></rect>
            <g id="cuzi1" transform="translate(279.000000, 0.000000)" fill-rule="nonzero">
                <circle id="carai" fill-opacity="0.15" fill="#58F4DA" cx="204" cy="204" r="204"></circle>
                <circle id="cuuu" fill="url(#linearGradient-2)" cx="204" cy="205.014925" r="171.522388"></circle>
                <path d="M107.58209,125.373731 C143.297313,142.911642 179.550448,160.794627 208.962985,187.608955 C238.375522,214.423284 260.521194,251.87403 259.790448,291.669254 C259.597612,302.539104 257.760597,313.713433 260.957612,324.146866 C264.154627,334.580299 274.86209,343.80597 285.254925,340.598806 C289.050746,339.431642 292.207164,336.802985 295.170746,334.15403 C338.152836,295.688358 363.698507,235.706269 352.767761,179.053134 C341.837015,122.4 290.136716,73.8459701 232.468657,74.5158209 C200.244776,74.8608955 170.030448,89.1408955 141.003582,103.136716 C128.601194,109.023284 114.026866,119.091343 116.838209,132.569552" id="pqp" fill="url(#linearGradient-3)" opacity="0.15"></path>
            </g>
            <g id="azulroxo" transform="translate(2026.000000, 593.000000)" fill-rule="nonzero">
                <circle id="e-azul" fill-opacity="0.15" fill="#58F4DA" cx="128.5" cy="128.5" r="128.5"></circle>
                <circle id="esse-eh-roxin" fill="url(#linearGradient-4)" cx="128.87585" cy="127.362292" r="99.9862055"></circle>
            </g>
            <g id="Group-5" transform="translate(1943.000000, 342.000000)" fill="#FCFCFC" fill-rule="nonzero">
                <circle id="Oval" opacity="0.52" cx="8.5" cy="8.5" r="8.5"></circle>
                <circle id="Oval" cx="8.5" cy="8.5" r="4.5"></circle>
            </g>
            <g id="Group-4" transform="translate(2070.000000, 266.000000)" fill="#FCFCFC" fill-rule="nonzero">
                <circle id="Oval" opacity="0.52" cx="17" cy="17" r="17"></circle>
                <circle id="Oval" cx="17" cy="17" r="9"></circle>
            </g>
            <g id="Group-47" transform="translate(1677.000000, 1119.000000)" fill="#FCFCFC" fill-rule="nonzero">
                <circle id="Oval" opacity="0.52" cx="8.5" cy="8.5" r="8.5"></circle>
                <circle id="Oval" cx="8.5" cy="8.5" r="4.5"></circle>
            </g>
            <g id="Group-108" transform="translate(471.000000, 1049.000000)" fill="#FCFCFC" fill-rule="nonzero">
                <circle id="Oval" opacity="0.52" cx="8.5" cy="8.5" r="8.5"></circle>
                <circle id="Oval" cx="8.5" cy="8.5" r="4.5"></circle>
            </g>
            <g id="Group-109" transform="translate(521.000000, 1106.000000)" fill="#FCFCFC" fill-rule="nonzero">
                <circle id="Oval" opacity="0.52" cx="17" cy="17" r="17"></circle>
                <circle id="Oval" cx="17" cy="17" r="9"></circle>
            </g>
            <g id="Group-43" transform="translate(778.000000, 865.000000)" fill="#FCFCFC" fill-rule="nonzero">
                <circle id="Oval" opacity="0.52" cx="8.5" cy="8.5" r="8.5"></circle>
                <circle id="Oval" cx="8.5" cy="8.5" r="4.5"></circle>
            </g>
            <g id="Group-110" transform="translate(446.000000, 800.000000)" fill="#FCFCFC" fill-rule="nonzero">
                <circle id="Oval" opacity="0.52" cx="17" cy="17" r="17"></circle>
                <circle id="Oval" cx="17" cy="17" r="9"></circle>
            </g>
            <g id="Group-111" transform="translate(1823.000000, 878.000000)" fill="#FCFCFC" fill-rule="nonzero">
                <circle id="Oval" opacity="0.52" cx="8.5" cy="8.5" r="8.5"></circle>
                <circle id="Oval" cx="8.5" cy="8.5" r="4.5"></circle>
            </g>
            <g id="planetinha-" transform="translate(2162.000000, 249.000000)">
                <g id="Group-16" transform="translate(2.129577, -0.000000)">
                    <path d="M71.0023528,171.276129 C49.1834587,129.186006 54.8321216,78.0785537 85.3143655,41.7852187 C115.796609,5.49188363 165.10944,-8.83993839 210.258246,5.47269271 C255.407052,19.7853238 287.500492,59.9237626 291.573369,107.171423 C295.646247,154.419083 270.896473,199.471289 228.864888,221.32016 C201.304507,235.649641 169.188172,238.427315 139.582478,229.042009 C109.976785,219.656702 85.3073981,198.877376 71.0023528,171.276129" id="praneta" fill="url(#linearGradient-5)" fill-rule="nonzero"></path>
                    <path d="M276.334184,57.1741137 C321.967987,31.6037261 352.745451,16.8179896 354.864888,20.2707028 C358.393902,25.9981447 281.850804,79.6878346 183.880099,140.181401 C85.9093951,200.674966 3.64685987,245.082951 0.117845787,239.355509 C-2.15370351,235.679385 28.5933387,212.231401 76.8130571,179.907912" id="anel2" stroke="#FCFCFC" stroke-width="17.01"></path>
                    <path d="M272.947142,69.6851214 C319.595029,45.8004703 352.045733,33.7362842 356.102071,40.235509 C362.774747,51.0709354 288.76686,108.893726 190.806296,169.387292 C92.8457331,229.880858 8.02770494,270.145587 1.35502889,259.320315 C-2.93454858,252.364114 26.0378458,226.042253 73.2434796,192.073649" id="anel" fill="#FCFCFC" fill-rule="nonzero" opacity="0.52"></path>
                </g>
                <path d="M276.313902,55.0110904 C321.947705,29.4508579 352.715029,14.6549664 354.844606,18.1178346 C358.37362,23.8452765 281.830522,77.5349664 183.859818,138.028532 C85.8891134,198.522098 3.62657818,242.930083 0.117845787,237.172176 C-2.15370351,233.485897 28.5933387,210.048067 76.8130571,177.724579" id="anel" stroke="#FCFCFC" stroke-width="17.01"></path>
            </g>
            <g id="planetamarelo" transform="translate(1897.000000, 1037.000000)" fill-rule="nonzero">
                <circle id="uu" fill="url(#linearGradient-6)" cx="71" cy="71" r="57.8142857"></circle>
                <circle id="amaerelo" fill-opacity="0.5" fill="#FFDA99" cx="71" cy="71" r="71"></circle>
            </g>
            <g id="planeta-2amarelo" transform="translate(742.000000, 122.000000)" fill-rule="nonzero">
                <circle id="nois" fill="url(#linearGradient-6)" cx="48.86375" cy="49.8741667" r="35.7283333"></circle>
                <circle id="eta" fill-opacity="0.5" fill="#FFDA99" cx="48.5" cy="48.5" r="48.5"></circle>
            </g>
            <g id="Group-12" transform="translate(778.000000, 266.000000)" fill="#FCFCFC" fill-rule="nonzero">
                <circle id="Oval" opacity="0.52" cx="17" cy="17" r="17"></circle>
                <g id="Oval-2" transform="translate(8.000000, 8.000000)">
                    <circle id="Oval" cx="9" cy="9" r="9"></circle>
                </g>
            </g>
            <g id="Group-13" transform="translate(893.000000, 281.000000)" fill="#FCFCFC" fill-rule="nonzero">
                <circle id="Oval" opacity="0.52" cx="8.5" cy="8.5" r="8.5"></circle>
                <circle id="Oval" cx="8.5" cy="8.5" r="4.5"></circle>
            </g>
            <g id="Group-9" transform="translate(1348.000000, 442.000000)" fill="#FCFCFC" fill-rule="nonzero">
                <circle id="Oval" opacity="0.52" cx="14.03" cy="14.03" r="14.03"></circle>
                <circle id="Oval" cx="14.03" cy="14.03" r="7.43"></circle>
            </g>
            <g id="Group-45" transform="translate(1895.000000, 832.000000)" fill="#FCFCFC" fill-rule="nonzero">
                <circle id="Oval" opacity="0.52" cx="17" cy="17" r="17"></circle>
                <circle id="Oval" cx="17" cy="17" r="9"></circle>
            </g>
            <g id="Group-46" transform="translate(1128.000000, 1040.000000)" fill="#FCFCFC" fill-rule="nonzero">
                <circle id="Oval" opacity="0.52" cx="8.5" cy="8.5" r="8.5"></circle>
                <circle id="Oval" cx="8.5" cy="8.5" r="4.5"></circle>
            </g>
            <g id="Group-6" transform="translate(1846.000000, 479.000000)" fill="#FCFCFC" fill-rule="nonzero">
                <circle id="Oval" opacity="0.52" cx="17" cy="17" r="17"></circle>
                <circle id="Oval" cx="17" cy="17" r="9"></circle>
            </g>
            <g id="Group-8" transform="translate(1559.000000, 272.000000)" fill="#FCFCFC" fill-rule="nonzero">
                <circle id="Oval" opacity="0.52" cx="8.5" cy="8.5" r="8.5"></circle>
                <circle id="Oval" cx="8.5" cy="8.5" r="4.5"></circle>
            </g>
            <g id="Group-49" transform="translate(1509.000000, 1208.000000)" fill="#FCFCFC" fill-rule="nonzero">
                <circle id="Oval" opacity="0.52" cx="8.5" cy="8.5" r="8.5"></circle>
                <circle id="Oval" cx="8.5" cy="8.5" r="4.5"></circle>
            </g>
            <g id="Group-48" transform="translate(1447.000000, 1002.000000)" fill="#FCFCFC" fill-rule="nonzero">
                <circle id="Oval" opacity="0.52" cx="17" cy="17" r="17"></circle>
                <circle id="Oval" cx="17" cy="17" r="9"></circle>
            </g>
            <g id="Group-15" transform="translate(427.000000, 452.000000)" fill="#FCFCFC" fill-rule="nonzero">
                <circle id="Oval" opacity="0.52" cx="8.5" cy="8.5" r="8.5"></circle>
                <circle id="Oval" cx="8.5" cy="8.5" r="4.5"></circle>
            </g>
            <g id="Group-14" transform="translate(769.000000, 453.000000)" fill="#FCFCFC" fill-rule="nonzero">
                <circle id="Oval" opacity="0.52" cx="8.5" cy="8.5" r="8.5"></circle>
                <circle id="Oval" cx="8.5" cy="8.5" r="4.5"></circle>
            </g>
            <g id="Group-44" transform="translate(1649.000000, 852.000000)" fill="#FCFCFC" fill-rule="nonzero">
                <circle id="Oval" opacity="0.52" cx="8.5" cy="8.5" r="8.5"></circle>
                <circle id="Oval" cx="8.5" cy="8.5" r="4.5"></circle>
            </g>
            <g id="Group-10" transform="translate(1143.000000, 295.000000)" fill="#FCFCFC" fill-rule="nonzero">
                <circle id="Oval" opacity="0.52" cx="8.5" cy="8.5" r="8.5"></circle>
                <circle id="Oval" cx="8.5" cy="8.5" r="4.5"></circle>
            </g>
            <g id="Group-65" transform="translate(844.000000, 1024.000000)" fill="#FCFCFC" fill-rule="nonzero">
                <circle id="Oval" opacity="0.52" cx="8.5" cy="8.5" r="8.5"></circle>
                <circle id="Oval" cx="8.5" cy="8.5" r="4.5"></circle>
            </g>
            <g id="Group-52" transform="translate(1330.000000, 826.000000)" fill="#FCFCFC" fill-rule="nonzero">
                <circle id="Oval" opacity="0.52" cx="8.5" cy="8.5" r="8.5"></circle>
                <circle id="Oval" cx="8.5" cy="8.5" r="4.5"></circle>
            </g>
            <g id="Group-7" transform="translate(1676.000000, 385.000000)" fill="#FCFCFC" fill-rule="nonzero">
                <circle id="Oval" opacity="0.52" cx="8.53" cy="8.53" r="8.53"></circle>
                <circle id="Oval" cx="8.53" cy="8.53" r="4.52"></circle>
            </g>
            <g id="Group-64" transform="translate(1940.000000, 914.000000)" fill="#FFFFFF" fill-rule="nonzero">
                <circle id="Oval" cx="348" cy="348" r="348"></circle>
            </g>
            <g id="5-meteoross" transform="translate(278.000000, 1169.000000)" fill-rule="nonzero">
                <path d="M273.580783,216.843722 C273.580783,216.843722 311.618521,229.017816 295.319533,197.436189 C279.020545,165.854562 20.9160213,17.868313 1.89715229,0.885452933 C-17.1217168,-16.0974072 273.580783,216.843722 273.580783,216.843722 Z" id="Path" fill="url(#linearGradient-7)"></path>
                <path d="M622.973849,977.663681 C622.973849,977.663681 643.738313,985.43481 633.467718,962.222873 C623.197123,939.010935 478.8912,836.728261 467.940634,824.594748 C456.990069,812.461235 622.973849,977.663681 622.973849,977.663681 Z" id="Path" fill="url(#linearGradient-8)"></path>
                <path d="M235.289325,827.425225 C235.289325,827.425225 260.955664,834.973163 249.954355,815.352582 C238.953045,795.732002 64.8502178,703.655277 52.052569,693.094251 C39.2549201,682.533225 235.289325,827.425225 235.289325,827.425225 Z" id="Path" fill="url(#linearGradient-9)"></path>
                <path d="M664.849544,363.931373 C664.849544,363.931373 695.033821,370.330404 675.289851,336.030935 C655.545882,301.731467 433.843698,179.669125 415.938009,163.389725 C398.03232,147.110325 664.849544,363.931373 664.849544,363.931373 Z" id="Path" fill="url(#linearGradient-10)"></path>
                <path d="M377.329214,659.345019 C377.329214,659.345019 430.030425,675.917134 407.417928,632.773696 C384.805432,589.630257 27.5770127,387.604289 1.23866323,364.403328 C-25.0996863,341.202367 377.329214,659.345019 377.329214,659.345019 Z" id="Path" fill="url(#linearGradient-11)"></path>
            </g>
            <g id="planetoso" transform="translate(1937.000000, 914.000000)" fill="url(#linearGradient-12)" fill-rule="nonzero">
                <circle id="Ovalgrand" cx="348" cy="348" r="348"></circle>
            </g>
            <g id="Group-59" transform="translate(930.000000, 2090.000000)" fill="#FCFCFC" fill-rule="nonzero">
                <circle id="Oval" opacity="0.52" cx="8.5" cy="8.5" r="8.5"></circle>
                <circle id="Oval" cx="8.5" cy="8.5" r="4.5"></circle>
            </g>
            <g id="Group-58" transform="translate(645.000000, 2073.000000)" fill="#FCFCFC" fill-rule="nonzero">
                <circle id="Oval" opacity="0.52" cx="8.5" cy="8.5" r="8.5"></circle>
                <circle id="Oval" cx="8.5" cy="8.5" r="4.5"></circle>
            </g>
            <g id="Group-57" transform="translate(708.000000, 2001.000000)" fill="#FCFCFC" fill-rule="nonzero">
                <circle id="Oval" opacity="0.52" cx="8.5" cy="8.5" r="8.5"></circle>
                <circle id="Oval" cx="8.5" cy="8.5" r="4.5"></circle>
            </g>
            <g id="Group-60" transform="translate(476.000000, 1876.000000)" fill="#FCFCFC" fill-rule="nonzero">
                <circle id="Oval" opacity="0.52" cx="14" cy="14" r="14"></circle>
                <circle id="Oval" cx="14.5" cy="13.5" r="7.5"></circle>
            </g>
            <g id="Group-61" transform="translate(392.000000, 1564.000000)" fill="#FCFCFC" fill-rule="nonzero">
                <circle id="Oval" opacity="0.52" cx="11" cy="11" r="11"></circle>
                <circle id="Oval" cx="11" cy="11" r="6"></circle>
            </g>
            <g id="Group-62" transform="translate(468.000000, 1404.000000)" fill="#FCFCFC" fill-rule="nonzero">
                <circle id="Oval" opacity="0.52" cx="10.5" cy="10.5" r="10.5"></circle>
                <circle id="Oval" cx="10.5" cy="10.5" r="5.5"></circle>
            </g>
            <g id="Group-56" transform="translate(715.000000, 2242.000000)" fill="#FCFCFC" fill-rule="nonzero">
                <circle id="Oval" opacity="0.52" cx="6.5" cy="6.5" r="6.5"></circle>
                <circle id="Oval" cx="6.5" cy="6.5" r="3.5"></circle>
            </g>
            <g id="Group-55" transform="translate(689.000000, 1253.000000)" fill="#FCFCFC" fill-rule="nonzero">
                <circle id="Oval" opacity="0.52" cx="10.5" cy="10.5" r="10.5"></circle>
                <circle id="Oval" cx="10.5" cy="10.5" r="5.5"></circle>
            </g>
            <g id="Group-54" transform="translate(827.000000, 1339.000000)" fill="#FCFCFC" fill-rule="nonzero">
                <circle id="Oval" opacity="0.52" cx="6.5" cy="6.5" r="6.5"></circle>
                <circle id="Oval" cx="6.5" cy="6.5" r="3.5"></circle>
            </g>
            <g id="Group-63" transform="translate(1300.000000, 1314.000000)" fill="#FCFCFC" fill-rule="nonzero">
                <circle id="Oval" opacity="0.52" cx="10.5" cy="10.5" r="10.5"></circle>
                <circle id="Oval" cx="10.5" cy="10.5" r="5.5"></circle>
            </g>
            <g id="Group-3" transform="translate(1430.000000, 1335.000000)" fill="#FCFCFC" fill-rule="nonzero">
                <circle id="Oval" opacity="0.52" cx="6.63" cy="6.63" r="6.63"></circle>
                <circle id="Oval" cx="6.63" cy="6.63" r="3.51"></circle>
            </g>
            <g id="Group-66" transform="translate(1460.000000, 1990.000000)" fill="#FCFCFC" fill-rule="nonzero">
                <circle id="Oval" opacity="0.52" cx="10.5" cy="10.5" r="10.5"></circle>
                <circle id="Oval" cx="10.5" cy="10.5" r="5.5"></circle>
            </g>
            <g id="Group-67" transform="translate(1502.000000, 2056.000000)" fill="#FCFCFC" fill-rule="nonzero">
                <circle id="Oval" opacity="0.52" cx="3.5" cy="3.5" r="3.5"></circle>
                <circle id="Oval" cx="3" cy="4" r="2"></circle>
            </g>
            <g id="Group-68" transform="translate(1447.000000, 1593.000000)" fill="#FCFCFC" fill-rule="nonzero">
                <circle id="Oval" opacity="0.52" cx="16" cy="16" r="16"></circle>
                <circle id="Oval" cx="16.5" cy="15.5" r="8.5"></circle>
            </g>
            <g id="Group-53" transform="translate(1099.000000, 1226.000000)" fill="#FCFCFC" fill-rule="nonzero">
                <circle id="Oval" opacity="0.52" cx="10.5" cy="10.5" r="10.5"></circle>
                <circle id="Oval" cx="10.5" cy="10.5" r="5.5"></circle>
            </g>
            <g id="Group-51" transform="translate(1684.000000, 1304.000000)" fill="#FCFCFC" fill-rule="nonzero">
                <circle id="Oval" opacity="0.52" cx="10.5" cy="10.5" r="10.5"></circle>
                <circle id="Oval" cx="10.5" cy="10.5" r="5.5"></circle>
            </g>
            <g id="Group-50" transform="translate(1816.000000, 1226.000000)" fill="#FCFCFC" fill-rule="nonzero">
                <circle id="Oval" opacity="0.52" cx="10.5" cy="10.5" r="10.5"></circle>
                <circle id="Oval" cx="10.5" cy="10.5" r="5.5"></circle>
            </g>
            <g id="Group-69" transform="translate(2158.000000, 1850.000000)" fill="#FCFCFC" fill-rule="nonzero">
                <circle id="Oval" opacity="0.52" cx="6.5" cy="6.5" r="6.5"></circle>
                <circle id="Oval" cx="6.5" cy="6.5" r="3.5"></circle>
            </g>
            <g id="Group-70" transform="translate(1838.000000, 2231.000000)" fill="#FCFCFC" fill-rule="nonzero">
                <circle id="Oval" opacity="0.52" cx="8.5" cy="8.5" r="8.5"></circle>
                <circle id="Oval" cx="8.5" cy="8.5" r="4.5"></circle>
            </g>
            <g id="Group-71" transform="translate(1774.000000, 2160.000000)" fill="#FCFCFC" fill-rule="nonzero">
                <circle id="Oval" opacity="0.52" cx="8.5" cy="8.5" r="8.5"></circle>
                <circle id="Oval" cx="8.5" cy="8.5" r="4.5"></circle>
            </g>
            <g id="Group-72" transform="translate(2015.000000, 2187.000000)" fill="#FCFCFC" fill-rule="nonzero">
                <circle id="Oval" opacity="0.52" cx="6.5" cy="6.5" r="6.5"></circle>
                <circle id="Oval" cx="6.5" cy="6.5" r="3.5"></circle>
            </g>
            <g id="Group-73" transform="translate(1897.000000, 2100.000000)" fill="#FCFCFC" fill-rule="nonzero">
                <circle id="Oval" opacity="0.52" cx="6.5" cy="6.5" r="6.5"></circle>
                <circle id="Oval" cx="6.5" cy="6.5" r="3.5"></circle>
            </g>
            <g id="Group-74" transform="translate(1293.000000, 2595.000000)" fill="#FCFCFC" fill-rule="nonzero">
                <circle id="Oval" opacity="0.52" cx="4" cy="4" r="4"></circle>
                <circle id="Oval" cx="4" cy="4" r="2"></circle>
            </g>
            <g id="Group-75" transform="translate(1227.000000, 2402.000000)" fill="#FCFCFC" fill-rule="nonzero">
                <circle id="Oval" opacity="0.52" cx="8.5" cy="8.5" r="8.5"></circle>
                <circle id="Oval" cx="8.5" cy="8.5" r="4.5"></circle>
            </g>
            <g id="Group-2" transform="translate(1376.000000, 2428.000000)" fill="#FCFCFC" fill-rule="nonzero">
                <circle id="Oval" opacity="0.52" cx="6.63" cy="6.63" r="6.63"></circle>
                <circle id="Oval" cx="6.63" cy="6.63" r="3.51"></circle>
            </g>
            <g id="Group-76" transform="translate(1351.000000, 2342.000000)" fill="#FCFCFC" fill-rule="nonzero">
                <circle id="Oval" opacity="0.52" cx="6.5" cy="6.5" r="6.5"></circle>
                <circle id="Oval" cx="6.5" cy="6.5" r="3.5"></circle>
            </g>
            <g id="Group-77" transform="translate(1993.000000, 3201.000000)" fill="#FCFCFC" fill-rule="nonzero">
                <circle id="Oval" opacity="0.52" cx="4" cy="4" r="4"></circle>
                <circle id="Oval" cx="4" cy="4" r="2"></circle>
            </g>
            <g id="Group-78" transform="translate(1557.000000, 2476.000000)" fill="#FCFCFC" fill-rule="nonzero">
                <circle id="Oval" opacity="0.52" cx="6.5" cy="6.5" r="6.5"></circle>
                <circle id="Oval" cx="6.5" cy="6.5" r="3.5"></circle>
            </g>
            <g id="Group-79" transform="translate(1181.000000, 2189.000000)" fill="#FCFCFC" fill-rule="nonzero">
                <circle id="Oval" opacity="0.52" cx="3.5" cy="3.5" r="3.5"></circle>
                <circle id="Oval" cx="4" cy="3" r="2"></circle>
            </g>
            <g id="Group-80" transform="translate(641.000000, 2415.000000)" fill="#FCFCFC" fill-rule="nonzero">
                <circle id="Oval" opacity="0.52" cx="4" cy="4" r="4"></circle>
                <circle id="Oval" cx="4" cy="4" r="2"></circle>
            </g>
            <g id="Group-81" transform="translate(509.000000, 2378.000000)" fill="#FCFCFC" fill-rule="nonzero">
                <circle id="Oval" opacity="0.52" cx="4" cy="4" r="4"></circle>
                <circle id="Oval" cx="4" cy="4" r="2"></circle>
            </g>
            <g id="Group-82" transform="translate(1448.000000, 2776.000000)" fill="#FCFCFC" fill-rule="nonzero">
                <circle id="Oval" opacity="0.52" cx="4" cy="4" r="4"></circle>
                <circle id="Oval" cx="4" cy="4" r="2"></circle>
            </g>
            <g id="Group-83" transform="translate(1314.000000, 2769.000000)" fill="#FCFCFC" fill-rule="nonzero">
                <circle id="Oval" opacity="0.52" cx="6.5" cy="6.5" r="6.5"></circle>
                <circle id="Oval" cx="6.5" cy="6.5" r="3.5"></circle>
            </g>
            <g id="Group-84" transform="translate(1403.000000, 2872.000000)" fill="#FCFCFC" fill-rule="nonzero">
                <circle id="Oval" opacity="0.52" cx="4" cy="4" r="4"></circle>
                <circle id="Oval" cx="4" cy="4" r="2"></circle>
            </g>
            <g id="Group-85" transform="translate(1403.000000, 2872.000000)" fill="#FCFCFC" fill-rule="nonzero">
                <circle id="Oval" opacity="0.52" cx="4" cy="4" r="4"></circle>
                <circle id="Oval" cx="4" cy="4" r="2"></circle>
            </g>
            <g id="Group-86" transform="translate(1225.000000, 3244.000000)" fill="#FCFCFC" fill-rule="nonzero">
                <circle id="Oval" opacity="0.52" cx="4" cy="4" r="4"></circle>
                <circle id="Oval" cx="4" cy="4" r="2"></circle>
            </g>
            <g id="Group-87" transform="translate(1450.000000, 3074.000000)" fill="#FCFCFC" fill-rule="nonzero">
                <circle id="Oval" opacity="0.52" cx="4" cy="4" r="4"></circle>
                <circle id="Oval" cx="4" cy="4" r="2"></circle>
            </g>
            <g id="Group-88" transform="translate(1881.000000, 2502.000000)" fill="#FCFCFC" fill-rule="nonzero">
                <circle id="Oval" opacity="0.52" cx="6.5" cy="6.5" r="6.5"></circle>
                <circle id="Oval" cx="6.5" cy="6.5" r="3.5"></circle>
            </g>
            <g id="Group-89" transform="translate(1856.000000, 2416.000000)" fill="#FCFCFC" fill-rule="nonzero">
                <circle id="Oval" opacity="0.52" cx="6.5" cy="6.5" r="6.5"></circle>
                <circle id="Oval" cx="6.5" cy="6.5" r="3.5"></circle>
            </g>
            <g id="Group-90" transform="translate(2062.000000, 2550.000000)" fill="#FCFCFC" fill-rule="nonzero">
                <circle id="Oval" opacity="0.52" cx="6.5" cy="6.5" r="6.5"></circle>
                <circle id="Oval" cx="6.5" cy="6.5" r="3.5"></circle>
            </g>
            <g id="Group-92" transform="translate(2251.000000, 2613.000000)" fill="#FCFCFC" fill-rule="nonzero">
                <circle id="Oval" opacity="0.52" cx="4" cy="4" r="4"></circle>
                <circle id="Oval" cx="4" cy="4" r="2"></circle>
            </g>
            <g id="Group-93" transform="translate(2256.000000, 3345.000000)" fill="#FCFCFC" fill-rule="nonzero">
                <circle id="Oval" opacity="0.52" cx="4" cy="4" r="4"></circle>
                <circle id="Oval" cx="4" cy="4" r="2"></circle>
            </g>
            <g id="Group-94" transform="translate(1577.000000, 3271.000000)" fill="#FCFCFC" fill-rule="nonzero">
                <circle id="Oval" opacity="0.52" cx="4" cy="4" r="4"></circle>
                <circle id="Oval" cx="4" cy="4" r="2"></circle>
            </g>
            <g id="Group-95" transform="translate(1383.000000, 3275.000000)" fill="#FCFCFC" fill-rule="nonzero">
                <circle id="Oval" opacity="0.52" cx="4" cy="4" r="4"></circle>
                <circle id="Oval" cx="4" cy="4" r="2"></circle>
            </g>
            <g id="Group-96" transform="translate(1383.000000, 3275.000000)" fill="#FCFCFC" fill-rule="nonzero">
                <circle id="Oval" opacity="0.52" cx="4" cy="4" r="4"></circle>
                <circle id="Oval" cx="4" cy="4" r="2"></circle>
            </g>
            <g id="Group-38" transform="translate(460.000000, 3310.000000)" fill="#FCFCFC" fill-rule="nonzero">
                <circle id="Oval" opacity="0.52" cx="2" cy="2" r="2"></circle>
                <circle id="Oval" cx="2" cy="2" r="1"></circle>
            </g>
            <g id="Group-97" transform="translate(1819.000000, 3199.000000)" fill="#FCFCFC" fill-rule="nonzero">
                <circle id="Oval" opacity="0.52" cx="2" cy="2" r="2"></circle>
                <circle id="Oval" cx="2" cy="2" r="1"></circle>
            </g>
            <g id="Group-98" transform="translate(2211.000000, 3030.000000)" fill="#FCFCFC" fill-rule="nonzero">
                <circle id="Oval" opacity="0.52" cx="2" cy="2" r="2"></circle>
                <circle id="Oval" cx="2" cy="2" r="1"></circle>
            </g>
            <g id="Group-99" transform="translate(2213.000000, 2386.000000)" fill="#FCFCFC" fill-rule="nonzero">
                <circle id="Oval" opacity="0.52" cx="2" cy="2" r="2"></circle>
                <circle id="Oval" cx="2" cy="2" r="1"></circle>
            </g>
            <g id="Group-11" transform="translate(1004.000000, 492.000000)" fill="#FCFCFC" fill-rule="nonzero">
                <circle id="Oval" opacity="0.52" cx="8.5" cy="8.5" r="8.5"></circle>
                <circle id="Oval" cx="8.5" cy="8.5" r="4.5"></circle>
            </g>
            <g id="Group-107" transform="translate(1799.000000, 3376.000000)" fill="#FCFCFC" fill-rule="nonzero">
                <circle id="Oval" opacity="0.52" cx="4.5" cy="4.5" r="4.5"></circle>
                <circle id="Oval" cx="4.5" cy="4.5" r="2.5"></circle>
            </g>
        </g>
    </g>
</svg>