<svg id="Layer_1" data-name="Layer 1" xmlns="http://www.w3.org/2000/svg" xmlns:xlink="http://www.w3.org/1999/xlink" viewBox="0 0 891.26 218"><defs><style>.cls-1{fill:url(#linear-gradient);}.cls-2,.cls-5{fill:none;}.cls-2{stroke:#fcfcfc;stroke-width:17.01px;}.cls-3{fill:#fcfcfc;opacity:0.52;isolation:isolate;}.cls-4{fill:#fff;}</style><linearGradient id="linear-gradient" x1="-69.91" y1="405.37" x2="-70.37" y2="406.26" gradientTransform="matrix(196, 0, 0, -196, 13903, 79638.1)" gradientUnits="userSpaceOnUse"><stop offset="0" stop-color="#cce0f4"/><stop offset="0" stop-color="#c6d7ed"/><stop offset="0" stop-color="#b4bddb"/><stop offset="0" stop-color="#9894be"/><stop offset="0" stop-color="#705a95"/><stop offset="0" stop-color="#3f1161"/><stop offset="0" stop-color="#305"/><stop offset="0.78" stop-color="#f42879"/><stop offset="0.99" stop-color="#ea2677" stop-opacity="0.92"/><stop offset="1" stop-color="#305" stop-opacity="0.8"/></linearGradient></defs><title>BONTE</title><g id="Page-1"><g id="Artboard"><g id="bontenew"><g id="Group-26"><g id="Group-20"><g id="Group-19"><path id="Path" class="cls-1" d="M81,34.92A98,98,0,1,1,69,143.15,98,98,0,0,1,81,34.92Z"/><path class="cls-2" d="M240.2,48.27c38.18-21.38,63.93-33.74,65.7-30.85,3,4.78-61.09,49.67-143,100.25S12.05,205.37,9.1,200.58c-1.9-3.07,23.82-22.67,64.17-49.7"/><path class="cls-3" d="M238,58.07c39.09-20,66.29-30,69.69-24.61,5.59,9-56.43,57.37-138.53,107.92S15.94,225.58,10.35,216.53C6.76,210.72,31,188.72,70.6,160.34"/></g><g id="bontê"><path id="path-2" d="M264.65,204H234.79V88.5h26.72c.67,0,29.38.16,29.38,32.5a35.28,35.28,0,0,1-8.75,23.76c5.94,4.46,12.38,12.71,12.38,26.73C294.52,204,265.14,204,264.65,204Zm-13.53-50.49v36.14h13a3.64,3.64,0,0,1,1-.17,13.87,13.87,0,0,0,6.6-2.31c4.3-2.64,6.28-7.92,6.28-15.68s-2.32-13.2-6.6-15.84a20.79,20.79,0,0,0-6.77-2.14Zm0-50.49v36h10.39c4.13,0,13-4.29,13-18s-8.91-18-13-18Zm116,101c-12.05,0-21.45-5.28-26.24-14.85a35.26,35.26,0,0,1-3.63-14V117.37a35.23,35.23,0,0,1,3.63-14c4.79-9.57,14.19-14.85,26.24-14.85s21.45,5.28,26.23,14.85a35,35,0,0,1,3.63,14v57.75a35.06,35.06,0,0,1-3.63,14C388.57,198.72,379.16,204,367.12,204Zm-13.53-86.63v57.75c0,2.48,1.81,14.53,13.53,14.53s13.36-11.89,13.36-14.53V117.37c0-2.64-1.65-14.35-13.36-14.35S353.59,114.9,353.59,117.37ZM499.45,88.5V204h-20l-23.43-72.6V204H439.72V88.5h19.8L483,161.1V88.5Zm102.46,0V103H580.3V204H563.8V103H542.18V88.5Zm48.51-19L670.06,55l19.47,14.52-9.08,12.2L670.06,74,659.5,81.73ZM697.12,103H661v36h26.9v14.52H661v36.14h36.14V204H644.65V88.5h52.47Z"/><path class="cls-4" d="M264.65,204H234.79V88.5h26.72c.67,0,29.38.16,29.38,32.5a35.28,35.28,0,0,1-8.75,23.76c5.94,4.46,12.38,12.71,12.38,26.73C294.52,204,265.14,204,264.65,204Zm-13.53-50.49v36.14h13a3.64,3.64,0,0,1,1-.17,13.87,13.87,0,0,0,6.6-2.31c4.3-2.64,6.28-7.92,6.28-15.68s-2.32-13.2-6.6-15.84a20.79,20.79,0,0,0-6.77-2.14Zm0-50.49v36h10.39c4.13,0,13-4.29,13-18s-8.91-18-13-18Zm116,101c-12.05,0-21.45-5.28-26.24-14.85a35.26,35.26,0,0,1-3.63-14V117.37a35.23,35.23,0,0,1,3.63-14c4.79-9.57,14.19-14.85,26.24-14.85s21.45,5.28,26.23,14.85a35,35,0,0,1,3.63,14v57.75a35.06,35.06,0,0,1-3.63,14C388.57,198.72,379.16,204,367.12,204Zm-13.53-86.63v57.75c0,2.48,1.81,14.53,13.53,14.53s13.36-11.89,13.36-14.53V117.37c0-2.64-1.65-14.35-13.36-14.35S353.59,114.9,353.59,117.37ZM499.45,88.5V204h-20l-23.43-72.6V204H439.72V88.5h19.8L483,161.1V88.5Zm102.46,0V103H580.3V204H563.8V103H542.18V88.5Zm48.51-19L670.06,55l19.47,14.52-9.08,12.2L670.06,74,659.5,81.73ZM697.12,103H661v36h26.9v14.52H661v36.14h36.14V204H644.65V88.5h52.47Z"/></g></g></g></g></g></g><rect class="cls-5" x="666.83" width="224.43" height="216.53"/></svg>